<svg xmlns="http://www.w3.org/2000/svg">
    <symbol id="fb" viewBox="0 0 96.124 96.123">
       <g> <path d="M72.089,0.02L59.624,0C45.62,0,36.57,9.285,36.57,23.656v10.907H24.037c-1.083,0-1.96,0.878-1.96,1.961v15.803
		c0,1.083,0.878,1.96,1.96,1.96h12.533v39.876c0,1.083,0.877,1.96,1.96,1.96h16.352c1.083,0,1.96-0.878,1.96-1.96V54.287h14.654
		c1.083,0,1.96-0.877,1.96-1.96l0.006-15.803c0-0.52-0.207-1.018-0.574-1.386c-0.367-0.368-0.867-0.575-1.387-0.575H56.842v-9.246
		c0-4.444,1.059-6.7,6.848-6.7l8.397-0.003c1.082,0,1.959-0.878,1.959-1.96V1.98C74.046,0.899,73.17,0.022,72.089,0.02z"/> </g>
    </symbol>
    <symbol id="pin" viewBox="0 0 30.954 30.954">
       <g> <path d="M27.456,10.189c0,6.973-3.879,12.183-9.595,12.183c-1.918,0-3.725-1.037-4.342-2.216c0,0-1.033,4.096-1.251,4.887
		c-0.771,2.794-3.035,5.59-3.209,5.816c-0.123,0.16-0.396,0.109-0.424-0.1c-0.049-0.357-0.627-3.884,0.053-6.759
		c0.342-1.442,2.288-9.688,2.288-9.688s-0.567-1.133-0.567-2.812c0-2.637,1.527-4.602,3.43-4.602c1.617,0,2.396,1.213,2.396,2.667
		c0,1.626-1.032,4.058-1.567,6.31c-0.445,1.888,0.944,3.425,2.808,3.425c3.366,0,5.637-4.327,5.637-9.452
		c0-3.897-2.625-6.814-7.396-6.814c-5.393,0-8.754,4.023-8.754,8.517c0,1.549,0.459,2.641,1.174,3.484
		c0.328,0.39,0.375,0.546,0.256,0.991c-0.087,0.328-0.279,1.115-0.363,1.427c-0.115,0.452-0.482,0.61-0.89,0.444
		c-2.484-1.014-3.64-3.733-3.64-6.792C3.498,6.057,7.756,0,16.203,0C22.988,0.002,27.456,4.915,27.456,10.189z"/> </g>
    </symbol>
    <symbol id="twitter" viewBox="0 0 612 612">
       <g> <g> <path d="M612,116.258c-22.525,9.981-46.694,16.75-72.088,19.772c25.929-15.527,45.777-40.155,55.184-69.411
			c-24.322,14.379-51.169,24.82-79.775,30.48c-22.907-24.437-55.49-39.658-91.63-39.658c-69.334,0-125.551,56.217-125.551,125.513
			c0,9.828,1.109,19.427,3.251,28.606C197.065,206.32,104.556,156.337,42.641,80.386c-10.823,18.51-16.98,40.078-16.98,63.101
			c0,43.559,22.181,81.993,55.835,104.479c-20.575-0.688-39.926-6.348-56.867-15.756v1.568c0,60.806,43.291,111.554,100.693,123.104
			c-10.517,2.83-21.607,4.398-33.08,4.398c-8.107,0-15.947-0.803-23.634-2.333c15.985,49.907,62.336,86.199,117.253,87.194
			c-42.947,33.654-97.099,53.655-155.916,53.655c-10.134,0-20.116-0.612-29.944-1.721c55.567,35.681,121.536,56.485,192.438,56.485
			c230.948,0,357.188-191.291,357.188-357.188l-0.421-16.253C573.872,163.526,595.211,141.422,612,116.258z"/> </g> </g>
    </symbol></svg>
